# xmcd CD database file
#
# Track frame offsets:
#	150
#	19921
#	37603
#	56282
#	77882
#	100146
#	125596
#	142710
#	159578
#	190751
#	206955
#	227479
#	244698
#
# Disc length: 3526 seconds
#
# Revision: 3
# Processed by: cddbd v1.5.2PL0 Copyright (c) Steve Scherf et al.
# Submitted via: CDex 1.70beta3
#
DISCID=9e0dc40d
DTITLE=Innovate Sounds - HUMAN
DYEAR=2011
DGENRE=Vocaloid
TTITLE0=きくお feat.初音ミク - 君の不思議な秘密
TTITLE1=ぶりる feat.初音ミク - ジレンマ
TTITLE2=猫虫 feat.初音ミク - 呼べない名前
TTITLE3=keeno feat.GUMI - fade
TTITLE4=oga(ShakeSphere) feat.初音ミク - callin'
TTITLE5=nana(Sevencolors) feat.初音ミク - humanize
TTITLE6=koyori(電ポルP) feat.初音ミク - 妄想進化論
TTITLE7=YM feat.GUMI - アイマロボット
TTITLE8=じょん feat.初音ミク - Solosail
TTITLE9=無力P feat.巡音ルカ - +ID
TTITLE10=buzzG feat.GUMI - ヒカリノユクエ
TTITLE11=koyori(電ポルP) feat.新社会人 - 妄想進化論 feat.新社会人
TTITLE12=きくお feat.ろん - 君の不思議な秘密 feat.ろん
EXTD=YEAR: 2011
EXTT0=
EXTT1=
EXTT2=
EXTT3=
EXTT4=
EXTT5=
EXTT6=
EXTT7=
EXTT8=
EXTT9=
EXTT10=
EXTT11=
EXTT12=
PLAYORDER=
